# xmcd
#
# Track frame offsets: 
#        150
#        27795
#        44022
#        70670
#        93595
#
# Disc length: 1490 seconds
#
# Revision: 1
# Processed by: cddbd v1.4PL0 Copyright (c) Steve Scherf et al.
# Submitted via: ExactAudioCopy v0.90b4
#
DISCID=3c05d005
DTITLE=At The Drive-In - invalid Litter Dept.
DYEAR=2000
DGENRE=Alt. Rock
TTITLE0=Invalid Litter Dept.
TTITLE1=Initiation
TTITLE2=Quarantined
TTITLE3=Take Up Thy Stethoscope And Walk
TTITLE4=Metronome Arthritis
EXTD=
EXTT0=
EXTT1=
EXTT2=
EXTT3=
EXTT4=
PLAYORDER=
